<?xml version="1.0" encoding="iso-8859-1"?>
<!-- Generator: Adobe Illustrator 19.0.0, SVG Export Plug-In . SVG Version: 6.00 Build 0)  -->
<svg version="1.1" id="Layer_1" xmlns="http://www.w3.org/2000/svg" xmlns:xlink="http://www.w3.org/1999/xlink" x="0px" y="0px"
	 viewBox="0 0 512 512" style="enable-background:new 0 0 512 512;" xml:space="preserve">
<g>
	<g>
		<g>
			<path d="M256,0C114.617,0,0,114.617,0,256s114.617,256,256,256s256-114.617,256-256S397.383,0,256,0z M256,494.933
				C124.043,494.933,17.067,387.957,17.067,256S124.043,17.067,256,17.067S494.933,124.043,494.933,256S387.957,494.933,256,494.933
				z"/>
			<path d="M383.672,159.789c-1.295-4.531-6.018-7.155-10.549-5.861l-59.733,17.067c-8.252,2.358-8.252,14.052,0,16.41
				l59.733,17.067c4.531,1.295,9.255-1.329,10.549-5.861c1.295-4.531-1.329-9.255-5.861-10.549l-31.016-8.862l31.016-8.862
				C382.342,169.044,384.966,164.321,383.672,159.789z"/>
			<path d="M198.611,170.995l-59.733-17.067c-4.531-1.295-9.255,1.329-10.549,5.861c-1.295,4.531,1.329,9.255,5.861,10.549
				l31.016,8.862l-31.016,8.862c-4.531,1.295-7.155,6.018-5.861,10.549c1.295,4.531,6.018,7.155,10.549,5.861l59.733-17.067
				C206.863,185.047,206.863,173.353,198.611,170.995z"/>
			<path d="M346.185,304.343c-58.201-40.227-137.85-25.687-178.075,32.512c-2.68,3.877-1.709,9.192,2.168,11.872
				c3.877,2.68,9.192,1.709,11.872-2.168c34.866-50.445,103.884-63.045,154.332-28.177c3.877,2.68,9.192,1.709,11.872-2.168
				C351.033,312.338,350.062,307.022,346.185,304.343z"/>
			<path d="M146.789,128.715c11.183-2.304,22.813,1.069,31.043,9.305c3.331,3.334,8.734,3.336,12.068,0.005
				c3.334-3.331,3.336-8.734,0.005-12.068c-12.331-12.341-29.807-17.409-46.559-13.957c-4.616,0.951-7.587,5.464-6.636,10.08
				C137.66,126.695,142.173,129.666,146.789,128.715z"/>
			<path d="M334.265,138.007c8.211-8.211,19.811-11.589,30.973-9.32c4.618,0.939,9.123-2.044,10.062-6.662
				c0.939-4.618-2.044-9.123-6.662-10.062c-16.717-3.398-34.14,1.675-46.441,13.976c-3.332,3.332-3.332,8.735,0,12.068
				C325.53,141.34,330.933,141.34,334.265,138.007z"/>
		</g>
	</g>
</g>
<g>
</g>
<g>
</g>
<g>
</g>
<g>
</g>
<g>
</g>
<g>
</g>
<g>
</g>
<g>
</g>
<g>
</g>
<g>
</g>
<g>
</g>
<g>
</g>
<g>
</g>
<g>
</g>
<g>
</g>
</svg>
